<svg id="Слой_1" data-name="Слой 1" xmlns="http://www.w3.org/2000/svg" viewBox="0 0 281.68 317.34"><defs><style>.cls-1{fill:#efede1;}.cls-2{fill:#2e333b;}.cls-3{fill:#ec634c;}.cls-4{fill:#6a986c;}.cls-5{fill:#e79d8d;}</style></defs><ellipse class="cls-1" cx="149.17" cy="297.84" rx="74.5" ry="19.5"/><path class="cls-2" d="M1100.16,371.12a1.36,1.36,0,0,1,2.66,0c2.42,8.91,1.69,18.79,1.94,27.94.48,11.08,1,22.17,1.69,33.25.73,10.36,1.45,21,2.18,31.32.48,5.3.72,10.6,1.69,15.66a5.45,5.45,0,0,0,.49,1.92s10.65,1.93,12.58,4.58c3.88,5.54,1.21,12.77-6.05,12.29s-12.58-8.43-14.28-14.94c-3.87-16.86-3.39-35.9-4.11-53-.49-10.36-.73-21-.73-31.32C1098.46,389.91,1097.49,380,1100.16,371.12Z" transform="translate(-929.22 -207.89)"/><path class="cls-2" d="M1066.27,372.8a1.44,1.44,0,0,1,2.66.73c-.24,9.15-3.63,18.31-5.81,27.22-2.66,10.84-5.32,21.68-7.74,32.52-2.43,10.12-4.6,20.48-6.54,30.84-1,5.06-2.18,10.36-2.9,15.66v1.92s9.68,4.82,10.65,7.95c2.17,6.27-2.42,12.53-9.2,10.36-7-2.41-9.93-11.56-9.44-18.31,1-17.34,6.77-35.41,10.89-52.27,2.42-10.12,5.33-20.24,8.23-30.36C1059.49,390.39,1061.43,380.75,1066.27,372.8Z" transform="translate(-929.22 -207.89)"/><path class="cls-3" d="M1038.19,260.3c-37,6.26-71.41,29.87-87.14,63.84s-10.9,77.09,14.28,104.8c32.92,35.65,85.2,38.3,130.47,33,44-5.06,79.15-21,86.17-68.9,5.09-36.62-7.74-79.74-35.34-105.52C1120.25,262.71,1072.8,254.52,1038.19,260.3Z" transform="translate(-929.22 -207.89)"/><path class="cls-4" d="M1108.05,264.73c9.33,4.71,18.43,10.35,25.15,17.65,1.55,1.86,3,5.18,1.13,6.71-1.27,1.19-3.34.44-5.16-.24a381.91,381.91,0,0,1-45.05-22.9c9.25,8.16,18.69,17.59,21.47,29.9.19,1.29.27,3-.89,3.75a2.61,2.61,0,0,1-2,0,26.41,26.41,0,0,1-10.16-5.4,90.12,90.12,0,0,1-23.68-28,77.9,77.9,0,0,1-10.43,21.78c-1.1,1.47-2.25,3.18-4,4s-4,1-5.4-.3c-2.07-1.73-1.58-4.83-1-7.41a133.8,133.8,0,0,1,7.72-22.93A50.36,50.36,0,0,1,1020.51,278c-3.52.15-7.94-1.15-7.86-4.6,0-2,1.55-3.35,3.3-4.41,8.27-5.46,19-4.62,27.7-9.73-10.61.68-20.78,4.69-32.06,4a22.49,22.49,0,0,1-8.71-2.08c-1.53-.86-3.19-2.25-3.45-4.29-1.32-12.21,49.43-9,56.49-8.31a146.71,146.71,0,0,1,42.09,11.3C1101.09,261.58,1104.69,263.19,1108.05,264.73Z" transform="translate(-929.22 -207.89)"/><path class="cls-4" d="M1082.68,208.39c2.92-1.78,5.36,1.53,4.46,4.29-3.49,8.33-8.63,15.27-11.47,24-2.66,8-3.44,16.51-6.29,24.26-1.42,3.87-8.46,4.17-8.28-.74C1061.79,243.78,1068.24,217.82,1082.68,208.39Z" transform="translate(-929.22 -207.89)"/><path class="cls-2" d="M1093.38,321.25a5.61,5.61,0,0,1,5.08-2.89c3.88.24,6.3,5.06,6.06,8.43-.25,2.65-1.94,5.3-4.6,5.78C1092.9,334.26,1090.72,325.83,1093.38,321.25Z" transform="translate(-929.22 -207.89)"/><path class="cls-2" d="M1033.35,324.14a5.42,5.42,0,0,1,2.18-4.82,4.27,4.27,0,0,1,3.14-1.44,5.37,5.37,0,0,1,2.91,1.2,3.86,3.86,0,0,1,1.94,2.41,5.77,5.77,0,0,1,1.21,3.37,5.56,5.56,0,0,1-4.36,6,6.19,6.19,0,0,1-6.54-3.38,7,7,0,0,1-.48-2.17Z" transform="translate(-929.22 -207.89)"/><path class="cls-2" d="M1081.15,361.21c-3.42-2.85-5.68-6.14-10.85-4.79-4.74,1-6.26,5.19-8,9.15a1.62,1.62,0,0,1-3-.23c-2.3-6.46,3.68-13.31,9.81-14.82s15,1.9,16.14,8.55C1086.09,361.37,1082.86,362.64,1081.15,361.21Z" transform="translate(-929.22 -207.89)"/><path class="cls-5" d="M1107.9,337.63a10.32,10.32,0,0,1,5.57-2.89c6.29-.72,13.8,6,8.23,11.8a9.09,9.09,0,0,1-8.47,2.17C1108.39,347.51,1103.79,342.21,1107.9,337.63Z" transform="translate(-929.22 -207.89)"/><path class="cls-5" d="M1014.47,335.94a10.39,10.39,0,0,1,5.57-2.89c6.29-.72,13.79,6,8.23,11.81a9.13,9.13,0,0,1-8.48,2.17C1015,345.82,1010.35,340.52,1014.47,335.94Z" transform="translate(-929.22 -207.89)"/><path class="cls-2" d="M1186.66,357.44c-7.2-13.12-16.46-22.66-26.36-33.78-2.08-2.48,1.39-6.25,3.47-3.78,8.88,10.43,17.58,19.45,24.72,31.49a159.72,159.72,0,0,1,14.87,33,33.55,33.55,0,0,1,5.05,5.34c1.26,1.34,2.77,3.31,2.44,5.28-.19.44-.38.88-.92.92-2,.44-3.63-1.31-5-2.42-.69-.83-1.7-1.53-2.4-2.35a26.61,26.61,0,0,0-1.73,5.84,2.79,2.79,0,1,1-5.54-.54c.56-3.72,2.22-7,3.21-10.48l.38-.89a40.05,40.05,0,0,1-2.47-5.81A161,161,0,0,0,1186.66,357.44Z" transform="translate(-929.22 -207.89)"/><path class="cls-2" d="M940.21,372.33c2.53-14.66,7.86-27.09,13.3-40.72,1.23-3-3.32-5.34-4.55-2.3-4.88,12.71-10.18,24.26-12.68,38.06a167.62,167.62,0,0,0-2.91,36c-1.2,2.18-2.07,4.43-3.15,6.8-.72,1.59-1.46,4-.64,5.82a1.31,1.31,0,0,0,1.25.64c1.81-.27,3-2.44,3.74-4a20.1,20.1,0,0,0,1.43-3.17,25.4,25.4,0,0,1,3.6,4.88,2.8,2.8,0,1,0,5.09-2.3c-1.5-3.34-4.44-5.79-6.69-8.95-.25-.42-.58-.49-.71-.7l.39-6.22C938.33,388,938.9,380.27,940.21,372.33Z" transform="translate(-929.22 -207.89)"/></svg>
