<svg width="291" height="393" viewBox="0 0 291 393" fill="none" xmlns="http://www.w3.org/2000/svg">
<path d="M185.159 36.7801C210.847 32.934 239.657 34.6756 259.468 53.4706C272.022 65.3716 278.916 81.8444 282.036 98.6075C287.188 126.764 282.326 156.226 271.006 182.35C266.507 192.727 260.991 202.814 254.388 212.103C252.791 214.352 251.122 216.675 249.236 218.779C242.559 226.326 233.271 230.97 224.563 235.687C215.564 240.622 206.276 245.266 196.334 248.024C185.884 250.926 175.072 250.999 164.477 249.185C145.246 245.919 125.944 238.953 108.382 230.535C92.4174 222.843 77.0331 213.119 64.2613 200.782C57.0045 193.743 50.6912 185.616 45.1035 177.198C28.7758 152.67 17.7456 122.264 24.4944 92.657C28.7033 74.0797 39.6609 58.1875 52.9408 44.8351C67.4542 30.249 84.8704 16.7515 104.391 10.0753C114.188 6.7372 124.42 4.92302 134.652 4.26991C143.505 3.68937 152.503 3.6168 161.284 5.35842C175.87 8.26112 189.222 15.4453 200.978 24.3711C210.847 31.9181 219.628 40.7713 227.61 50.2776C233.416 57.1715 239.366 64.5008 243.866 72.3381C248.655 80.6108 252.066 89.5366 255.041 98.6075C258.016 107.751 260.919 117.04 262.588 126.618C263.459 131.626 263.967 136.633 263.894 141.713C263.822 146.865 262.515 151.727 262.225 156.807C261.645 166.748 258.669 176.472 254.17 185.326C245.244 202.959 230.803 216.82 215.201 228.576C207.219 234.526 198.946 239.969 190.674 245.411C181.82 251.144 172.75 257.24 162.227 259.562C141.691 264.061 121.372 253.684 104.464 243.162C89.297 233.728 73.9853 223.278 62.5922 209.273C51.1992 195.34 44.9584 175.239 42.6362 157.387C39.0078 130.247 46.192 103.252 61.0683 80.4657C71.6632 63.9203 85.9589 47.9555 102.867 37.8686C120.356 27.4189 141.473 20.017 161.864 18.6383C180.587 17.4046 198.366 22.5569 213.823 33.2243C228.554 43.3837 240.31 57.3892 249.961 72.3381C255.476 80.9011 260.846 89.8268 262.007 100.131C263.168 110.001 262.298 120.378 261.354 130.247C259.322 151.001 254.388 171.393 246.768 190.768C243.067 200.202 238.713 209.49 233.634 218.271C229.279 225.818 224.055 234.454 216.943 239.678C211.428 243.742 204.316 245.847 197.93 247.951C191.399 250.128 184.796 251.942 178.265 254.119C170.137 256.877 162.372 260.142 154.027 262.319C143.94 264.859 133.636 266.528 123.259 267.544C112.881 268.56 102.504 269.141 92.0546 269.649C83.9996 270.084 75.7995 269.649 68.3251 266.383C46.7 256.95 38.137 230.39 33.5653 209.273C28.8484 187.72 26.9616 165.007 26.3085 143.019C25.6554 121.829 30.0095 99.8411 40.5317 81.2639C46.6274 70.5239 55.0452 61.0902 65.5675 54.5591C78.7022 46.5041 94.5219 43.9643 109.543 41.497C123.984 39.1022 139.804 39.2474 154.245 41.2067C181.603 44.9076 207.945 56.0104 228.481 74.5877C242.414 87.2144 254.243 103.179 260.411 121.103C265.636 136.488 266.216 152.888 262.443 168.708C259.395 181.552 253.807 193.598 247.131 204.846C241.108 215.078 234.504 225.238 226.232 233.801C215.201 245.266 202.139 254.7 188.424 262.682C176.16 269.867 163.098 276.18 149.383 280.244C140.384 282.929 131.604 283.872 122.388 282.058C111.648 279.953 101.633 275.091 92.6351 268.996C80.0084 260.36 69.2684 248.967 60.2701 236.631C48.5867 220.666 39.0804 202.814 33.2024 183.874C23.6235 152.67 22.8253 117.765 31.5334 86.271C34.3635 76.1116 38.137 66.823 45.9017 59.4211C54.755 50.9307 65.6401 44.4722 76.8154 39.3925C109.616 24.5888 147.206 23.1374 181.385 33.7323C212.226 43.3112 239.439 63.122 257.653 89.8268C265.926 102.018 271.514 115.08 276.448 128.868C281.31 142.293 286.463 156.081 287.987 170.377C289.438 183.874 286.68 197.081 277.682 207.531C267.305 219.65 251.993 227.124 237.407 232.857C205.477 245.339 169.919 249.765 135.813 246.21C101.488 242.654 67.0188 229.809 42.7813 204.411C26.8165 187.72 15.5686 165.442 13.5367 142.22C12.3756 128.941 14.6252 115.153 18.3987 102.454C20.5757 95.1968 23.2607 87.7224 27.3245 81.3365C28.5581 79.3771 25.4377 77.563 24.2041 79.5223C19.4872 86.9967 16.4394 95.8499 14.1172 104.268C10.5614 117.33 8.6021 131.335 10.1986 144.833C13.1738 169.724 25.728 193.09 43.6521 210.434C69.849 235.687 105.842 247.661 141.473 250.346C176.523 253.031 213.024 247.588 245.317 233.438C260.048 226.979 275.215 218.489 284.286 204.774C291.687 193.598 293.066 180.318 291.252 167.329C289.075 151.727 283.197 136.851 277.9 122.192C272.892 108.332 266.361 95.2694 257.508 83.3683C215.347 26.6932 134.434 7.10004 70.7923 38.4491C59.7621 43.8917 48.7319 50.8582 40.4592 60.0017C33.1299 68.1292 29.7192 78.7966 27.1068 89.2463C18.7615 123.208 20.5032 160.507 32.6219 193.38C39.4432 211.885 49.6027 229.374 61.8666 244.758C71.3003 256.659 82.5483 267.472 95.6104 275.309C104.826 280.897 114.986 285.033 125.726 286.412C135.813 287.718 145.392 285.759 154.971 282.493C169.702 277.486 183.852 270.302 196.987 262.029C210.63 253.394 223.692 243.307 234.069 230.898C241.543 221.972 247.929 211.667 253.517 201.508C260.483 188.809 265.853 175.094 267.813 160.653C272.82 124.151 253.444 89.8994 225.651 67.4761C203.881 49.9874 177.104 40.0456 149.528 37.1429C131.822 35.3287 114.115 36.7801 96.6989 40.4085C88.8616 42.0775 81.0243 43.4563 73.5499 46.5767C67.3817 49.1165 61.6489 52.5272 56.424 56.6636C46.6274 64.646 39.0804 75.2408 33.783 86.6339C29.6466 95.5597 26.7439 105.066 24.9298 114.717C22.1722 129.086 22.535 143.454 23.6235 157.895C25.2926 179.665 27.0342 201.435 33.2024 222.48C39.8786 245.266 52.9408 269.359 78.7022 272.914C89.0068 274.366 99.7467 272.842 110.051 272.189C120.356 271.608 130.66 270.592 140.82 268.851C158.671 265.803 175.289 258.909 192.488 253.539C199.454 251.362 206.421 249.185 213.024 246.064C219.991 242.799 224.78 237.501 229.425 231.406C241.689 215.078 249.961 194.977 255.984 175.601C262.37 154.992 265.781 133.44 266.071 111.887C266.216 101.655 265.128 92.2941 260.483 83.0055C256.129 74.37 250.614 66.1699 244.809 58.5503C234.142 44.6174 221.152 31.9906 205.477 23.8631C187.771 14.7196 168.033 12.978 148.585 16.6789C128.701 20.4524 107.947 28.58 91.8369 40.989C76.38 52.8901 62.8825 69 53.3762 85.9808C40.1689 109.493 35.1618 136.56 39.9512 163.192C41.2574 170.522 43.3619 177.561 45.7566 184.527C47.4256 189.317 48.9496 194.106 51.3443 198.605C55.4806 206.515 61.2134 213.554 67.5994 219.795C81.0243 232.93 97.5697 243.887 114.042 252.668C132.039 262.247 152.576 268.197 172.242 259.925C181.82 255.934 190.383 249.765 199.019 244.105C207.8 238.3 216.435 232.349 224.563 225.746C239.729 213.409 253.082 198.388 260.556 180.101C262.37 175.747 263.749 171.175 264.692 166.531C265.708 161.378 265.926 156.153 266.797 151.001C268.538 140.842 267.377 130.392 265.2 120.378C263.096 110.726 260.048 101.147 256.783 91.8587C253.517 82.6427 249.598 73.4992 244.011 65.3716C231.457 47.1572 216.145 30.0313 197.858 17.4772C185.376 8.91422 171.298 2.60086 156.204 0.786676C136.248 -1.60805 114.26 1.51235 95.8281 9.49476C86.3943 13.6311 77.7588 19.2914 69.5587 25.6047C61.2135 32.0632 53.1585 38.9571 46.0469 46.7944C33.3476 60.7273 23.4784 77.055 20.2129 95.7048C14.8429 126.183 26.5988 156.879 43.7973 181.625C49.385 189.752 55.6983 197.662 62.8825 204.411C77.396 217.908 94.5944 228.431 112.664 236.413C130.806 244.468 150.834 251.58 170.645 253.611C192.633 255.788 211.5 246.935 230.295 236.558C238.133 232.277 246.115 227.777 252.066 220.884C254.243 218.416 256.202 215.659 258.089 212.974C265.055 202.887 270.861 192.002 275.505 180.681C286.535 153.976 290.817 124.079 285.084 95.6322C281.455 77.7807 273.328 60.2194 259.177 48.3183C238.35 30.8296 209.977 29.3782 184.143 33.2243C181.893 33.6597 182.909 37.1429 185.159 36.7801Z" fill="#F7F6F1"/>
<path d="M248.22 187.793C247.204 189.389 246.623 191.276 245.752 192.873C243.648 196.719 241.181 200.347 238.278 203.685C227.828 215.876 213.532 224.077 198.293 228.866C175.58 236.05 149.601 237.937 126.379 231.841C106.205 226.616 88.136 215.369 73.3323 200.928C60.7055 188.591 50.2558 173.86 42.7814 157.823C38.0645 147.663 34.291 136.778 35.1618 125.458C36.0326 113.774 39.153 102.744 45.3938 92.7297C57.2949 73.4993 77.1058 60.2195 96.9167 50.2052C120.138 38.4493 146.117 29.1607 172.387 28.435C182.836 28.1447 194.447 29.0155 203.954 33.4421C204.389 33.6598 204.824 33.805 205.187 34.0952C207.219 35.2563 209.033 32.1359 207.001 30.9748C200.398 27.1288 191.907 25.8951 184.433 25.242C161.647 23.1376 138.353 29.0155 117.308 37.2882C81.097 51.3663 38.4274 75.894 32.4043 118.419C30.8804 129.086 31.7512 138.665 35.3795 148.897C41.0398 165.007 50.1833 179.883 61.0684 192.945C74.4208 208.837 91.1113 222.117 110.269 230.245C132.765 239.751 157.22 240.695 181.167 236.776C208.961 232.204 238.278 218.126 250.687 191.349C250.905 190.841 251.122 190.188 251.413 189.68C252.646 187.575 249.453 185.761 248.22 187.793Z" fill="#F7F6F1"/>
<path d="M248.511 230.825C242.27 247.08 226.232 261.739 209.179 267.181C198.149 270.664 186.03 271.826 174.565 272.188C160.994 272.696 147.279 271.68 133.927 269.068C98.8768 262.392 64.625 245.266 38.6459 220.811C17.6739 201.145 4.17637 174.513 3.59583 145.558C3.16042 122.337 10.4897 96.5753 27.5431 80.03C29.2121 78.4335 26.6722 75.821 25.0032 77.4901C9.54635 92.5115 1.78164 114.935 0.25773 136.125C-1.77416 164.571 8.31271 192.292 26.8174 213.772C39.4441 228.43 55.6266 240.186 72.3171 249.838C87.774 258.763 104.392 265.657 121.663 270.084C147.86 276.833 175.58 277.921 202.14 272.624C223.838 268.342 243.939 252.74 251.994 231.768C252.865 229.591 249.309 228.648 248.511 230.825Z" fill="#F7F6F1"/>
<text fill="#F7F6F1" xml:space="preserve" style="white-space: pre" font-family="Raleway" font-size="161.917" font-weight="bold" letter-spacing="0em"><tspan x="84.0642" y="201.197">C</tspan></text>
<text fill="#F7F6F1" xml:space="preserve" style="white-space: pre" font-family="Raleway" font-size="62.5455" font-weight="600" letter-spacing="0em"><tspan x="34" y="377.306">Chatito</tspan></text>
</svg>
