<svg id="Слой_1" data-name="Слой 1" xmlns="http://www.w3.org/2000/svg" viewBox="0 0 1936.7 383.64"><defs><style>.cls-1{fill:#efede1;}.cls-2{fill:#2e333b;}.cls-3{fill:#ec634c;}.cls-4{fill:#6a986c;}.cls-5{fill:#e79d8d;}.cls-6,.cls-7{fill:none;stroke:#fff;}.cls-6{stroke-width:10px;}.cls-7{stroke-width:9px;}.cls-8{fill:#fff;}</style></defs><ellipse class="cls-1" cx="991.03" cy="364.14" rx="74.5" ry="19.5"/><path class="cls-2" d="M1100.16,371.12a1.36,1.36,0,0,1,2.66,0c2.42,8.91,1.69,18.79,1.93,27.94.49,11.08,1,22.17,1.7,33.25.73,10.36,1.46,21,2.18,31.32.49,5.3.73,10.6,1.7,15.66a5.65,5.65,0,0,0,.48,1.92s10.65,1.93,12.59,4.58c3.87,5.54,1.21,12.77-6.05,12.29s-12.6-8.43-14.29-14.94c-3.87-16.86-3.39-35.9-4.11-53-.49-10.36-.73-21-.73-31.32C1098.46,389.91,1097.49,380,1100.16,371.12Z" transform="translate(-87.35 -141.59)"/><path class="cls-2" d="M1066.27,372.8a1.44,1.44,0,0,1,2.66.73c-.24,9.15-3.63,18.31-5.81,27.22-2.66,10.84-5.32,21.68-7.75,32.52-2.42,10.12-4.59,20.48-6.53,30.84-1,5.06-2.18,10.36-2.91,15.66v1.92s9.69,4.82,10.65,7.95c2.18,6.27-2.42,12.53-9.19,10.36-7-2.41-9.93-11.56-9.44-18.31,1-17.34,6.77-35.41,10.89-52.27,2.42-10.12,5.32-20.24,8.23-30.36C1059.49,390.39,1061.43,380.75,1066.27,372.8Z" transform="translate(-87.35 -141.59)"/><path class="cls-3" d="M1038.19,260.3c-37,6.26-71.41,29.87-87.14,63.84s-10.9,77.09,14.28,104.8c32.92,35.65,85.2,38.3,130.47,33,44.06-5.06,79.16-21,86.18-68.9,5.08-36.62-7.75-79.74-35.34-105.52C1120.25,262.71,1072.8,254.52,1038.19,260.3Z" transform="translate(-87.35 -141.59)"/><path class="cls-4" d="M1108.05,264.73c9.33,4.71,18.44,10.35,25.15,17.65,1.55,1.86,3,5.18,1.14,6.71-1.28,1.19-3.34.44-5.17-.24a383.6,383.6,0,0,1-45.06-22.9c9.26,8.16,18.7,17.59,21.48,29.9.19,1.29.27,3-.89,3.75a2.61,2.61,0,0,1-2,0,26.41,26.41,0,0,1-10.16-5.4,90,90,0,0,1-23.68-28,77.9,77.9,0,0,1-10.43,21.78c-1.1,1.47-2.26,3.18-4,4s-4,1-5.4-.3c-2.08-1.73-1.58-4.83-1-7.41a133.8,133.8,0,0,1,7.72-22.93A50.38,50.38,0,0,1,1020.51,278c-3.52.15-7.94-1.15-7.86-4.6,0-2,1.55-3.35,3.29-4.41,8.28-5.46,19-4.62,27.71-9.73-10.61.68-20.78,4.69-32.06,4a22.49,22.49,0,0,1-8.71-2.08c-1.53-.86-3.19-2.25-3.45-4.29-1.32-12.21,49.43-9,56.48-8.31a146.69,146.69,0,0,1,42.1,11.3C1101.08,261.58,1104.68,263.19,1108.05,264.73Z" transform="translate(-87.35 -141.59)"/><path class="cls-2" d="M1093.38,321.25a5.61,5.61,0,0,1,5.08-2.89c3.88.24,6.3,5.06,6,8.43-.24,2.65-1.93,5.3-4.59,5.78C1092.9,334.26,1090.72,325.83,1093.38,321.25Z" transform="translate(-87.35 -141.59)"/><path class="cls-2" d="M1033.35,324.14a5.4,5.4,0,0,1,2.18-4.82,4.27,4.27,0,0,1,3.14-1.44,5.37,5.37,0,0,1,2.91,1.2,3.81,3.81,0,0,1,1.93,2.41,5.71,5.71,0,0,1,1.21,3.37,5.54,5.54,0,0,1-4.35,6,6.19,6.19,0,0,1-6.54-3.38,7,7,0,0,1-.48-2.17Z" transform="translate(-87.35 -141.59)"/><path class="cls-2" d="M1062.62,363.77c4.25,1.31,7.61,3.46,11.86.21,4-2.78,3.76-7.21,3.88-11.55a1.61,1.61,0,0,1,2.84-.94c4.62,5.06,1.77,13.69-3.3,17.46s-14.6,4.08-18.2-1.63C1058,365.54,1060.49,363.12,1062.62,363.77Z" transform="translate(-87.35 -141.59)"/><path class="cls-5" d="M1107.91,337.63a10.33,10.33,0,0,1,5.56-2.89c6.3-.72,13.8,6,8.23,11.8a9.08,9.08,0,0,1-8.47,2.17C1108.39,347.51,1103.79,342.21,1107.91,337.63Z" transform="translate(-87.35 -141.59)"/><path class="cls-5" d="M1014.47,335.94a10.4,10.4,0,0,1,5.56-2.89c6.3-.72,13.8,6,8.23,11.81a9.1,9.1,0,0,1-8.47,2.17C1015,345.82,1010.35,340.52,1014.47,335.94Z" transform="translate(-87.35 -141.59)"/><path class="cls-6" d="M89.89,340.23c131-77,414-75,609-1,159.1,60.37,221.5,63,271.5,59" transform="translate(-87.35 -141.59)"/><path class="cls-7" d="M1154.89,405.23c22.67-5.34,61,10,108-70s281-336,759-74" transform="translate(-87.35 -141.59)"/><path class="cls-8" d="M1006.15,382.23h0v34.5h-27.5c-17.5-5-13.45-31.88-2.5-33.5C982.88,382.23,998.38,382.23,1006.15,382.23Z" transform="translate(-87.35 -141.59)"/><rect class="cls-8" x="918.53" y="237.64" width="5" height="40"/><rect class="cls-8" x="921.3" y="244.64" width="17" height="7"/><rect class="cls-8" x="921.3" y="261.64" width="17" height="7"/><path class="cls-8" d="M1147.39,386.23h-25v35h25c8.8,1.2,10.67-4.5,10.5-7.5v-18C1157.49,387.73,1150.72,386.06,1147.39,386.23Z" transform="translate(-87.35 -141.59)"/><rect class="cls-8" x="1027.53" y="240.64" width="8" height="44"/><path class="cls-2" d="M1218.48,336.39c-15,.12-27.76,3.75-42.24,7.19-3.17.66-4.85-4.18-1.68-4.84,13.38-2.88,25.46-6.26,39.44-6.84a160.12,160.12,0,0,1,36.14,2.58,33.29,33.29,0,0,1,7.1-1.91c1.77-.48,2.15-1.34,2.65-.84.3.38-.64,1-1,1.5a20.69,20.69,0,0,0-1.65,2.34c-1,1.5-1.35,1.66-1.53,2.84a26.18,26.18,0,0,0,4.32,4.29,2.79,2.79,0,1,1-3.1,4.62c-3-2.25-5.07-5.24-7.71-7.79l-.6-.76a39,39,0,0,1-6.29-.58A161.91,161.91,0,0,0,1218.48,336.39Z" transform="translate(-87.35 -141.59)"/><path class="cls-2" d="M920.38,369.12c11.45-9.52,23.57-15.5,36.55-22.34,2.92-1.51,1-6.22-2-4.71-12,6.51-23.49,11.85-34.35,20.72A167.49,167.49,0,0,0,895,388.27c-2.32.87-4.45,2-6.81,3.13a23.5,23.5,0,0,1-2.84.83c-.08.47.5.5,1.5.5s5.5.5,5.78.5c.72,0,.72,1.5.72,1.5a25,25,0,0,1-.72,5.92A2.8,2.8,0,1,0,898,402.2c1-3.52.38-7.29.72-11.15.08-.48-.12-.76-.09-1l4.34-4.48C908.76,379.84,914.23,374.31,920.38,369.12Z" transform="translate(-87.35 -141.59)"/><path class="cls-4" d="M1082.68,208.39c2.92-1.78,5.36,1.53,4.46,4.29-3.49,8.33-8.63,15.27-11.47,24-2.66,8-3.44,16.51-6.29,24.26-1.42,3.87-8.46,4.17-8.28-.74C1061.79,243.78,1068.24,217.82,1082.68,208.39Z" transform="translate(-87.35 -141.59)"/></svg>
