<svg width="21" height="23" viewBox="0 0 21 23" fill="none" xmlns="http://www.w3.org/2000/svg">
<path fill-rule="evenodd" clip-rule="evenodd" d="M3.36088 4.28249C2.67009 5.02705 2.08347 5.85058 1.6668 6.79256C2.14383 7.16951 2.62086 7.54759 3.0974 7.92528C3.68336 8.3897 4.26857 8.85352 4.85211 9.31392C4.90145 9.3534 4.95628 9.38725 5.0111 9.42109C5.37294 8.40014 5.92667 7.50892 6.70518 6.76436C8.96944 4.59836 12.4508 4.5758 14.5835 6.58386C14.7191 6.71345 14.782 6.64485 14.8553 6.56487L14.8553 6.56486C14.865 6.55433 14.8748 6.5436 14.885 6.53309C15.2037 6.20734 15.5208 5.8808 15.8379 5.55435C16.3662 5.01029 16.8943 4.46651 17.4289 3.92713C17.5988 3.75791 17.5604 3.67894 17.4069 3.54357C14.9837 1.40014 12.1822 0.638654 9.05167 1.15195C6.81483 1.51859 4.92338 2.60159 3.36088 4.28249ZM6.239 15.7275C5.67431 15.0844 5.29602 14.3342 4.989 13.5333C4.43253 13.9761 3.87742 14.4203 3.32232 14.8645C2.76723 15.3087 2.21213 15.7528 1.65567 16.1956C2.29712 17.5663 3.20172 18.7226 4.35852 19.659C7.14909 21.9265 10.296 22.4906 13.7006 21.5993C15.148 21.2214 16.4309 20.5163 17.5219 19.4503C16.5351 18.6606 15.5482 17.8709 14.5614 17.0756C14.5117 17.0347 14.4641 16.9898 14.4161 16.9444C14.3845 16.9146 14.3528 16.8847 14.3201 16.8556C13.4758 17.3858 12.5767 17.7299 11.5844 17.837C9.45172 18.0627 7.67541 17.3576 6.239 15.7275ZM17.5274 19.45C17.034 19.0552 16.5405 18.6589 16.0471 18.2626L16.0451 18.261C15.5524 17.8653 15.0596 17.4696 14.5669 17.0753C14.4971 17.0215 14.4343 16.9605 14.3729 16.9009L14.3729 16.9009C14.3571 16.8856 14.3414 16.8704 14.3257 16.8554C14.9945 16.3308 15.5538 15.7103 15.9211 14.9206C16.0691 14.6048 16.1678 14.2776 16.2665 13.9448C16.3323 13.7135 16.3103 13.6233 16.0362 13.6289C14.8614 13.641 13.6866 13.6387 12.5118 13.6364L12.5103 13.6364C12.0409 13.6355 11.5714 13.6346 11.102 13.6346C10.93 13.6346 10.8423 13.6346 10.7976 13.5907C10.7511 13.5451 10.7511 13.4521 10.7511 13.2623C10.7511 12.9764 10.7515 12.6901 10.7518 12.4037V12.4032C10.7528 11.5426 10.7539 10.6805 10.7456 9.82151C10.7456 9.60153 10.784 9.51692 11.0252 9.51692C13.2991 9.52538 15.573 9.52432 17.8469 9.52326C18.6048 9.52291 19.3627 9.52256 20.1206 9.52256C20.2851 9.52256 20.3893 9.53384 20.4167 9.7369C20.795 12.467 20.4935 15.0729 19.1009 17.4815C18.6788 18.2204 18.1689 18.8916 17.5274 19.45ZM3.32242 14.8643C3.87752 14.4201 4.43262 13.9759 4.98909 13.5331C4.58887 12.1624 4.56694 10.7917 5.01102 9.42672L5.01101 9.42671C4.95619 9.39287 4.90137 9.35903 4.85203 9.31955C4.32026 8.89934 3.78849 8.47773 3.25672 8.05612C2.72489 7.63446 2.19306 7.2128 1.66124 6.79255C1.64353 6.82697 1.6244 6.8614 1.60513 6.89608C1.57072 6.95801 1.53585 7.02078 1.50773 7.08587C0.67988 8.93035 0.400275 10.8651 0.652468 12.8788C0.800494 14.0407 1.11299 15.1576 1.65576 16.1955C2.21222 15.7527 2.76732 15.3085 3.32242 14.8643Z" fill="#6A986C"/>
</svg>
