<svg width="169" height="190" viewBox="0 0 169 190" fill="none" xmlns="http://www.w3.org/2000/svg">
<g clip-path="url(#clip0)">
<path d="M77.9169 105.197C78.2315 104.258 79.4898 104.258 79.6471 105.197C81.22 110.989 80.7482 117.407 80.9054 123.356C81.22 130.557 81.5346 137.758 82.0065 144.959C82.4783 151.69 82.9502 158.578 83.4221 165.309C83.7367 168.753 83.894 172.197 84.5231 175.485C84.5231 175.954 84.6804 176.267 84.8377 176.737C84.8377 176.737 91.7585 177.989 93.0168 179.711C95.5334 183.312 93.8033 188.008 89.0845 187.695C84.3658 187.382 80.9054 182.216 79.8044 177.989C77.2878 167.031 77.6023 154.665 77.1305 143.55C76.8159 136.819 76.6586 129.931 76.6586 123.199C76.8159 117.407 76.1867 110.989 77.9169 105.197Z" fill="#2E333B"/>
<path d="M55.8965 106.293C56.3684 105.51 57.6267 105.823 57.6267 106.762C57.4694 112.711 55.2674 118.66 53.8517 124.452C52.1215 131.496 50.3913 138.54 48.8184 145.585C47.2455 152.16 45.8299 158.891 44.5716 165.622C43.9424 168.91 43.156 172.354 42.6841 175.798C42.6841 176.267 42.6841 176.58 42.6841 177.05C42.6841 177.05 48.9757 180.181 49.6049 182.216C51.0205 186.286 48.032 190.356 43.6279 188.947C39.0664 187.382 37.1789 181.433 37.4935 177.05C38.1227 165.779 41.8977 154.038 44.5716 143.08C46.1445 136.505 48.032 129.931 49.9195 123.356C51.4924 117.72 52.7507 111.459 55.8965 106.293Z" fill="#2E333B"/>
<mask id="path-3-inside-1" fill="white">
<path d="M37.6508 33.1872C13.5854 37.2573 -8.74985 52.5985 -18.9737 74.6711C-29.1976 96.7436 -26.0518 124.765 -9.69357 142.767C11.6979 165.936 45.6726 167.658 75.0859 164.214C103.713 160.926 126.52 150.594 131.081 119.442C134.384 95.6478 126.048 67.6266 108.117 50.8765C90.9723 34.7526 60.1433 29.4301 37.6508 33.1872Z"/>
</mask>
<path d="M37.6508 33.1872C13.5854 37.2573 -8.74985 52.5985 -18.9737 74.6711C-29.1976 96.7436 -26.0518 124.765 -9.69357 142.767C11.6979 165.936 45.6726 167.658 75.0859 164.214C103.713 160.926 126.52 150.594 131.081 119.442C134.384 95.6478 126.048 67.6266 108.117 50.8765C90.9723 34.7526 60.1433 29.4301 37.6508 33.1872Z" fill="#EC634C" stroke="#F7F6F1" stroke-width="4.56233" mask="url(#path-3-inside-1)"/>
<path d="M77.4454 32.4042C84.0516 33.9696 90.6577 36.1612 96.0056 39.7617C97.2639 40.701 98.6796 42.5795 97.7358 43.8318C97.1066 44.7711 95.691 44.6145 94.4327 44.458C83.5797 42.5795 73.0412 40.0748 62.5028 36.7874C69.5808 40.5444 76.9735 45.0842 80.5912 52.4417C80.9057 53.2244 81.2203 54.3202 80.5912 54.9464C80.2766 55.2595 79.8047 55.2595 79.3328 55.2595C76.8162 55.2595 74.4568 54.4768 72.0975 53.381C64.8621 50.0935 58.2559 45.2407 52.9081 39.2921C52.5935 44.6145 51.4925 49.7805 49.605 54.6333C49.1331 55.7291 48.6612 56.9814 47.7175 57.7642C46.7737 58.5469 45.3581 59.0165 44.2571 58.3903C42.6842 57.6076 42.5269 55.5726 42.5269 53.8506C42.5269 48.5281 42.9988 43.3622 43.9425 38.1963C39.853 45.8669 32.4603 51.659 24.1239 54.0071C21.9219 54.6333 18.9333 54.4768 18.4615 52.2852C18.1469 51.0328 18.9333 49.937 19.8771 48.9977C24.2812 44.3015 31.202 43.2057 35.9207 38.6659C29.3145 40.701 23.4948 44.7711 16.2594 46.0234C14.3719 46.3365 12.3272 46.4931 10.4397 46.0234C9.33865 45.7103 8.08031 45.0842 7.60844 43.8318C4.93451 36.3178 37.4936 30.6822 42.055 30.056C51.4925 28.9602 61.0872 29.1168 70.3673 30.8388C72.5694 31.4649 75.086 31.9346 77.4454 32.4042Z" fill="#6A986C"/>
<path d="M52.9075 0.626154C54.4804 -0.939276 56.5252 0.782697 56.3679 2.66121C55.4242 8.45331 53.2221 13.6192 52.7502 19.5679C52.2784 25.0469 53.0648 30.5259 52.4357 35.8483C52.1211 38.5096 47.7169 39.7619 47.0878 36.6311C45.043 26.1427 45.2003 8.76639 52.9075 0.626154Z" fill="#6A986C"/>
<path d="M73.5141 72.7927C74.1433 71.6969 75.2443 70.9142 76.8172 70.9142C79.3338 71.0707 80.9067 74.2016 80.7495 76.3932C80.5922 78.1152 79.4911 79.8371 77.7609 80.1502C73.1995 81.246 71.7839 75.767 73.5141 72.7927Z" fill="#2E333B"/>
<path d="M34.5056 74.6712C34.3483 73.4189 34.9775 72.3231 35.9212 71.5403C36.3931 70.9142 37.3368 70.6011 37.966 70.6011C38.7524 70.7576 39.3816 70.9142 39.8534 71.3838C40.4826 71.6969 40.9545 72.323 41.1118 72.9492C41.5836 73.5754 41.8982 74.3581 41.8982 75.1408C42.0555 76.8628 40.9545 78.7413 39.067 79.0544C37.3368 79.3675 35.6066 78.4282 34.8202 76.8628C34.6629 76.3932 34.5056 75.9235 34.5056 75.4539C34.5056 75.2974 34.5056 74.9843 34.5056 74.6712Z" fill="#2E333B"/>
<path d="M53.3805 92.8303C55.268 95.0219 56.369 97.3701 59.8294 97.057C62.9752 96.9005 64.3908 94.3958 65.9637 92.0476C66.4356 91.2649 67.6939 91.578 67.8512 92.5173C68.6377 96.9005 64.0763 100.657 59.9867 100.971C55.8972 101.284 50.5493 98.1528 50.5493 93.7696C50.2347 92.2042 52.4368 91.7345 53.3805 92.8303Z" fill="#2E333B"/>
<path d="M82.9506 83.4377C83.737 82.4984 85.1527 81.8722 86.5683 81.5591C90.6578 81.0895 95.5338 85.4727 91.9161 89.2298C90.5005 90.6386 88.2985 91.1083 86.411 90.6386C83.2652 89.8559 80.2767 86.412 82.9506 83.4377Z" fill="#E79D8D"/>
<path d="M22.2365 82.3417C23.023 81.4025 24.4386 80.7763 25.8542 80.4632C29.9437 79.9936 34.8197 84.3768 31.202 88.1338C29.7864 89.5427 27.5844 90.0123 25.6969 89.5427C22.5511 88.76 19.5626 85.316 22.2365 82.3417Z" fill="#E79D8D"/>
</g>
<path d="M141 78.3153C135.472 86.3157 128.845 91.8588 121.706 98.3866C120.196 99.8498 122.184 102.523 123.694 101.06C130.133 94.9164 136.359 89.664 141.777 82.3577C146.385 76.1299 150.458 69.2456 153.596 61.9955C154.948 61.0764 156.104 60.0541 157.213 58.8817C158.117 58.1032 159.225 56.9308 159.147 55.6365C159.053 55.3363 158.959 55.0362 158.613 54.9799C157.332 54.5579 156.176 55.5802 155.225 56.2086C154.722 56.6963 154.022 57.0809 153.519 57.5686C153.142 56.368 152.867 54.9705 152.789 53.6762C152.782 51.0407 149.166 51.0219 149.173 53.6575C149.283 56.096 150.139 58.3001 150.547 60.6449C150.641 60.9451 150.688 61.0951 150.735 61.2452C149.925 62.3238 149.359 63.6556 148.746 64.8374C146.441 69.5176 144.043 73.8977 141 78.3153Z" fill="#2E333B"/>
<defs>
<clipPath id="clip0">
<rect width="156.504" height="189.261" fill="white" transform="matrix(-1 0 0 1 131.711 0)"/>
</clipPath>
</defs>
</svg>
