<svg width="53" height="52" viewBox="0 0 53 52" fill="none" xmlns="http://www.w3.org/2000/svg">
<path d="M33.0389 7.01538C37.6227 6.32911 42.7633 6.63987 46.2983 9.99356C48.5384 12.1171 49.7685 15.0565 50.3253 18.0476C51.2447 23.0716 50.3771 28.3287 48.3571 32.9902C47.5543 34.8419 46.5702 36.6417 45.3919 38.2992C45.107 38.7006 44.8092 39.1149 44.4725 39.4904C43.2813 40.8371 41.6239 41.6658 40.07 42.5074C38.4644 43.388 36.807 44.2167 35.033 44.7087C33.1684 45.2267 31.2391 45.2396 29.3486 44.9159C25.9172 44.3332 22.4729 43.0901 19.3393 41.5881C16.4906 40.2155 13.7456 38.4804 11.4666 36.2792C10.1717 35.0232 9.04521 33.5729 8.04817 32.0709C5.13474 27.6943 3.16656 22.2688 4.37078 16.9858C5.12179 13.671 7.07703 10.8352 9.44662 8.45267C12.0363 5.85001 15.144 3.44157 18.6272 2.2503C20.3752 1.65467 22.201 1.33095 24.0267 1.21442C25.6065 1.11083 27.2121 1.09788 28.7789 1.40865C31.3815 1.92659 33.7641 3.2085 35.8617 4.80117C37.6227 6.14783 39.1895 7.72755 40.6139 9.42382C41.6497 10.6539 42.7115 11.9617 43.5143 13.3602C44.3689 14.8363 44.9775 16.429 45.5084 18.0476C46.0393 19.6791 46.5573 21.3365 46.8551 23.0457C47.0105 23.9392 47.1011 24.8326 47.0882 25.739C47.0752 26.6584 46.8421 27.5259 46.7903 28.4323C46.6867 30.2063 46.1559 31.9414 45.353 33.5211C43.7604 36.6676 41.1836 39.1408 38.3997 41.2385C36.9753 42.3003 35.4992 43.2714 34.023 44.2426C32.4433 45.2655 30.8247 46.3532 28.9472 46.7675C25.2827 47.5703 21.6571 45.7187 18.6401 43.8411C15.9339 42.1578 13.2017 40.2932 11.1688 37.7942C9.13585 35.308 8.02228 31.7213 7.60792 28.5359C6.96049 23.6932 8.2424 18.8763 10.8969 14.8104C12.7874 11.8582 15.3382 9.00946 18.3552 7.20961C21.4759 5.34502 25.2439 4.02426 28.8824 3.77824C32.2232 3.55811 35.3956 4.47746 38.1536 6.3809C40.7822 8.1937 42.8799 10.6928 44.602 13.3602C45.5861 14.8881 46.5443 16.4808 46.7515 18.3195C46.9587 20.0805 46.8033 21.9321 46.635 23.6932C46.2724 27.3964 45.3919 31.035 44.0323 34.4923C43.3719 36.1756 42.595 37.833 41.6886 39.3998C40.9117 40.7464 39.9794 42.2873 38.7104 43.2196C37.7263 43.9447 36.4574 44.3202 35.3179 44.6958C34.1525 45.0842 32.9742 45.4079 31.8088 45.7964C30.3586 46.2884 28.9731 46.8711 27.484 47.2596C25.6841 47.7128 23.8454 48.0106 21.9938 48.1919C20.1421 48.3732 18.2905 48.4767 16.4259 48.5674C14.9886 48.6451 13.5254 48.5674 12.1917 47.9847C8.33304 46.3014 6.80511 41.5622 5.98935 37.7942C5.14769 33.9484 4.81103 29.8955 4.69449 25.9721C4.57795 22.1911 5.35487 18.2677 7.23241 14.9529C8.32009 13.0365 9.82213 11.3532 11.6997 10.1878C14.0434 8.75049 16.8662 8.29729 19.5465 7.85704C22.1233 7.42974 24.9461 7.45563 27.5228 7.80525C32.4045 8.46562 37.1048 10.4468 40.7692 13.7616C43.2554 16.0146 45.366 18.8633 46.4666 22.0616C47.3989 24.8067 47.5025 27.7331 46.8292 30.5559C46.2853 32.8478 45.2883 34.9973 44.097 37.0043C43.0223 38.8301 41.844 40.6428 40.3678 42.1708C38.3997 44.2167 36.0689 45.9 33.6216 47.3243C31.4333 48.6062 29.1026 49.7328 26.6553 50.4579C25.0497 50.937 23.4829 51.1053 21.8384 50.7816C19.922 50.4061 18.1351 49.5385 16.5295 48.4508C14.2764 46.91 12.3601 44.877 10.7544 42.6758C8.66971 39.8271 6.97344 36.6417 5.92461 33.2622C4.21539 27.6943 4.07296 21.466 5.62679 15.8463C6.13178 14.0335 6.80511 12.3761 8.19061 11.0553C9.77034 9.54036 11.7126 8.38793 13.7067 7.48153C19.5595 4.84002 26.2668 4.58105 32.3656 6.47154C37.8688 8.18075 42.7245 11.7157 45.9746 16.4808C47.4507 18.6562 48.4478 20.9869 49.3283 23.4471C50.1958 25.8426 51.1152 28.3028 51.3871 30.8537C51.6461 33.2622 51.154 35.6188 49.5484 37.4834C47.6967 39.6458 44.9646 40.9795 42.3619 42.0024C36.6645 44.2296 30.3197 45.0195 24.2339 44.385C18.1092 43.7505 11.9586 41.4586 7.63382 36.9266C4.78513 33.9484 2.7781 29.9732 2.41554 25.8297C2.20836 23.4601 2.60977 20.9999 3.28309 18.7338C3.67155 17.439 4.15065 16.1053 4.87577 14.9658C5.0959 14.6162 4.53911 14.2925 4.31898 14.6421C3.47732 15.9758 2.93348 17.5555 2.51913 19.0576C1.88465 21.3883 1.53504 23.8874 1.81991 26.2958C2.3508 30.7372 4.5909 34.9066 7.7892 38.0013C12.4636 42.5074 18.8861 44.644 25.2439 45.1231C31.4981 45.6022 38.0112 44.631 43.7733 42.106C46.4019 40.9536 49.1081 39.4386 50.7267 36.9914C52.0475 34.9973 52.2935 32.6277 51.9698 30.3099C51.5813 27.5259 50.5325 24.8715 49.5872 22.2559C48.6938 19.7827 47.5284 17.4519 45.9487 15.3284C38.4256 5.21553 23.9879 1.71941 12.632 7.3132C10.6638 8.28434 8.6956 9.52741 7.21946 11.1589C5.91166 12.6092 5.30307 14.5126 4.83693 16.3772C3.34784 22.4371 3.6586 29.0927 5.82102 34.9584C7.03818 38.2603 8.85099 41.3809 11.0393 44.126C12.7226 46.2496 14.7296 48.1789 17.0604 49.5774C18.7049 50.5744 20.5177 51.3125 22.434 51.5585C24.2339 51.7916 25.9431 51.442 27.6523 50.8593C30.2809 49.9658 32.8059 48.6839 35.1496 47.2078C37.5839 45.6669 39.9146 43.867 41.7663 41.6528C43.1 40.0602 44.2395 38.2215 45.2365 36.4087C46.4796 34.1427 47.4378 31.6954 47.7874 29.1186C48.6808 22.6055 45.2236 16.4937 40.2643 12.4926C36.3797 9.37202 31.6016 7.59807 26.6812 7.08012C23.5217 6.75641 20.3623 7.01538 17.2546 7.66281C15.8562 7.96063 14.4577 8.20665 13.124 8.76344C12.0234 9.21664 11.0005 9.82522 10.0682 10.5633C8.32009 11.9876 6.97344 13.8781 6.02819 15.9111C5.29013 17.5037 4.77218 19.2 4.44847 20.9222C3.95642 23.486 4.02116 26.0498 4.21539 28.6266C4.51321 32.5111 4.82398 36.3957 5.92461 40.1508C7.11588 44.2167 9.44662 48.5156 14.0434 49.1501C15.8821 49.409 17.7985 49.1371 19.6372 49.0206C21.4759 48.917 23.3146 48.7357 25.1274 48.4249C28.3127 47.8811 31.2779 46.651 34.3467 45.6928C35.5898 45.3043 36.8329 44.9159 38.0112 44.3591C39.2543 43.7764 40.1089 42.8312 40.9376 41.7435C43.1259 38.83 44.602 35.2433 45.6768 31.786C46.8162 28.1086 47.4248 24.2629 47.4766 20.4172C47.5025 18.5914 47.3083 16.921 46.4796 15.2636C45.7027 13.7227 44.7186 12.2596 43.6827 10.9C41.7792 8.41383 39.4614 6.16078 36.6645 4.71053C33.5051 3.07901 29.9831 2.76825 26.5129 3.42862C22.9649 4.10195 19.2616 5.55219 16.3871 7.7664C13.629 9.88997 11.2206 12.7646 9.52431 15.7945C7.16767 19.9899 6.27422 24.8197 7.12882 29.5718C7.3619 30.8796 7.73741 32.1356 8.16471 33.3787C8.46253 34.2333 8.73445 35.0879 9.16175 35.8907C9.89982 37.3021 10.9228 38.5581 12.0622 39.6717C14.4577 42.0154 17.41 43.9706 20.3493 45.5374C23.5606 47.2466 27.225 48.3084 30.7341 46.8323C32.4433 46.1201 33.9712 45.0195 35.5121 44.0095C37.0789 42.9736 38.6198 41.9118 40.07 40.7335C42.7763 38.5322 45.1588 35.8519 46.4925 32.5888C46.8162 31.8119 47.0623 30.9962 47.2306 30.1674C47.4119 29.2481 47.4507 28.3158 47.6061 27.3964C47.9169 25.5836 47.7097 23.7191 47.3212 21.9321C46.9457 20.21 46.4019 18.5008 45.8192 16.8434C45.2365 15.1989 44.5373 13.5674 43.5402 12.1171C41.3001 8.86703 38.568 5.81116 35.3049 3.57106C33.0778 2.04313 30.5658 0.9166 27.8725 0.592885C24.3116 0.165582 20.3882 0.722371 17.0992 2.14672C15.4159 2.88478 13.875 3.89477 12.4118 5.0213C10.9228 6.17372 9.48547 7.40384 8.21651 8.80229C5.9505 11.2884 4.1895 14.2018 3.60681 17.5296C2.64861 22.968 4.74628 28.4453 7.8151 32.8607C8.81214 34.311 9.93867 35.7224 11.2206 36.9266C13.8103 39.335 16.8791 41.2126 20.1033 42.6369C23.3405 44.0742 26.9143 45.3432 30.4492 45.7057C34.3726 46.0942 37.7393 44.5145 41.093 42.6628C42.4914 41.8989 43.9157 41.0961 44.9775 39.8659C45.366 39.4257 45.7156 38.9336 46.0523 38.4545C47.2953 36.6547 48.3312 34.7124 49.1599 32.6924C51.1281 27.9273 51.8921 22.5925 50.8691 17.5167C50.2217 14.3313 48.7715 11.1978 46.2465 9.07421C42.5303 5.9536 37.4674 5.69463 32.8577 6.3809C32.4563 6.45859 32.6375 7.08012 33.0389 7.01538Z" fill="#EC634C"/>
<path d="M44.2911 33.9614C44.1099 34.2463 44.0063 34.5829 43.8509 34.8678C43.4754 35.5541 43.0351 36.2015 42.5172 36.7972C40.6526 38.9725 38.1017 40.4357 35.3825 41.2903C31.3296 42.5722 26.694 42.9089 22.5505 41.8212C18.9508 40.8889 15.7266 38.8819 13.0851 36.3051C10.832 34.1038 8.96741 31.4753 7.63371 28.6136C6.79205 26.8008 6.11873 24.8586 6.27411 22.8386C6.42949 20.7539 6.98628 18.7857 8.09986 16.9988C10.2234 13.5674 13.7584 11.1978 17.2934 9.4109C21.4369 7.31323 26.0725 5.65581 30.7599 5.52633C32.6245 5.47453 34.6962 5.62992 36.3925 6.41978C36.4702 6.45862 36.5479 6.48452 36.6126 6.53632C36.9752 6.74349 37.2989 6.1867 36.9363 5.97953C35.758 5.29325 34.243 5.07313 32.9093 4.95659C28.8435 4.58108 24.687 5.62992 20.9319 7.10605C14.4706 9.61808 6.8568 13.9947 5.78206 21.5826C5.51014 23.486 5.66553 25.1952 6.31296 27.021C7.32294 29.8956 8.95447 32.55 10.8968 34.8808C13.2793 37.7165 16.2575 40.0861 19.6759 41.5363C23.69 43.2326 28.0536 43.4009 32.3267 42.7017C37.286 41.8859 42.5172 39.3739 44.7314 34.5959C44.7702 34.5053 44.8091 34.3887 44.8609 34.2981C45.081 33.9226 44.5113 33.5989 44.2911 33.9614Z" fill="#EC634C"/>
<path d="M44.3431 41.6399C43.2295 44.5404 40.3679 47.156 37.325 48.1271C35.3568 48.7486 33.1944 48.9558 31.1485 49.0206C28.7271 49.1112 26.2798 48.9299 23.8973 48.4638C17.6431 47.2725 11.5314 44.2166 6.89579 39.853C3.15365 36.3439 0.745211 31.5918 0.641623 26.4253C0.563931 22.2817 1.87174 17.685 4.91465 14.7327C5.21247 14.4478 4.75927 13.9817 4.46145 14.2795C1.70341 16.9599 0.317908 20.961 0.0459881 24.742C-0.316572 29.8178 1.48328 34.7642 4.78517 38.597C7.03822 41.2126 9.92575 43.3102 12.9039 45.0324C15.662 46.6251 18.6272 47.8552 21.709 48.6451C26.3834 49.8493 31.3298 50.0435 36.0689 49.0983C39.9406 48.3343 43.5273 45.5503 44.9646 41.8082C45.12 41.4197 44.4855 41.2514 44.3431 41.6399Z" fill="#EC634C"/>
<path d="M15.8956 25.599C15.8956 24.347 16.1171 23.1143 16.5601 21.9009C17.0224 20.6681 17.6869 19.5703 18.5537 18.6072C19.4204 17.6442 20.4798 16.8641 21.7318 16.267C22.9837 15.6699 24.4091 15.3713 26.0077 15.3713C27.8953 15.3713 29.5229 15.7855 30.8904 16.6137C32.2772 17.4419 33.3077 18.5205 33.9818 19.8496L30.9193 21.9586C30.6497 21.3808 30.3222 20.8993 29.937 20.5141C29.5518 20.1096 29.1377 19.7918 28.6947 19.5606C28.2516 19.3295 27.7894 19.1658 27.3079 19.0695C26.8263 18.9539 26.3544 18.8961 25.8922 18.8961C24.8906 18.8961 24.0142 19.0984 23.263 19.5029C22.5311 19.9073 21.9147 20.437 21.4139 21.0919C20.9324 21.7275 20.5665 22.4594 20.3161 23.2877C20.0657 24.0966 19.9405 24.9056 19.9405 25.7146C19.9405 26.6198 20.0849 27.4962 20.3738 28.3437C20.6628 29.1719 21.0672 29.9039 21.5873 30.5395C22.1266 31.1751 22.7622 31.6855 23.4941 32.0707C24.2453 32.456 25.0639 32.6486 25.9499 32.6486C26.4122 32.6486 26.8937 32.5908 27.3945 32.4752C27.8953 32.3597 28.3672 32.1767 28.8102 31.9263C29.2725 31.6759 29.6962 31.3581 30.0815 30.9729C30.4667 30.5684 30.7749 30.0868 31.006 29.5283L34.2708 31.4062C33.9433 32.1767 33.4714 32.8604 32.8551 33.4575C32.258 34.0354 31.5742 34.5265 30.8037 34.931C30.0526 35.3355 29.2436 35.6437 28.3768 35.8556C27.5101 36.0674 26.6626 36.1734 25.8344 36.1734C24.3705 36.1734 23.0319 35.8652 21.8184 35.2488C20.605 34.6325 19.5552 33.8331 18.6692 32.8508C17.8025 31.8492 17.1187 30.7225 16.6179 29.4705C16.1364 28.1993 15.8956 26.9088 15.8956 25.599Z" fill="#EC634C"/>
</svg>
